<?xml version="1.0" encoding="utf-8"?>
<!-- Generator: Adobe Illustrator 21.0.0, SVG Export Plug-In . SVG Version: 6.00 Build 0)  -->
<svg version="1.1" id="图层_1" xmlns="http://www.w3.org/2000/svg" xmlns:xlink="http://www.w3.org/1999/xlink" x="0px" y="0px"
	 viewBox="0 0 200 200" style="enable-background:new 0 0 200 200;" xml:space="preserve">
<style type="text/css">
	.st0{fill:#CCCCCC;}
</style>
<path class="st0" d="M100,22c-43.1,0-78,34.9-78,78c0,43.7,35.9,78,79.9,78c41.5,0,76.1-34.7,76.1-76.1C178,58,143.7,22,100,22z
	 M100,32c36.9,0,67.7,29,67.7,66h-37.2V73c0,0,0.2-15-13-15s-13,15-13,15v25h-10V58h-8H77h-0.5H69v40h-0.5H32.1
	C33.1,61.4,63.1,32,100,32z M140.5,103v21c0,0,0.1,5.6-5,7c-4.8-1-5-7-5-7v-21H140.5z M117.5,66c4.8,0,5,7,5,7v25h-10V73
	C112.5,73,112,66,117.5,66z M104.5,103v30c0,0,0.1,5.6-5,7c-4.8-1-5-7-5-7v-30H104.5z M77,66h9.5v32H77V66z M68.5,103v27h-10v-27
	H68.5z M102.2,167.9c-38,0-68.5-27.7-70.1-64.9h18.4v35h8h10h8v-35h10v30c0,0,0.7,15,13,15c12.4,0,13-15,13-15v-30h10v21
	c0,0,0.7,15,13,15c12.4,0,13-15,13-15v-21h19.4c0,0.1,0,0.1,0,0.2C167.9,138.1,137.3,167.9,102.2,167.9z"/>
</svg>
