<?xml version="1.0" encoding="utf-8"?>
<!-- Generator: Adobe Illustrator 21.0.0, SVG Export Plug-In . SVG Version: 6.00 Build 0)  -->
<svg version="1.1" id="图层_1" xmlns="http://www.w3.org/2000/svg" xmlns:xlink="http://www.w3.org/1999/xlink" x="0px" y="0px"
	 viewBox="0 0 200 200" style="enable-background:new 0 0 200 200;" xml:space="preserve">
<style type="text/css">
	.st0{fill:#CCCCCC;}
</style>
<g>
	<path class="st0" d="M83,83.1h-1.4h0c-2.1,0-3.8,1.7-3.8,3.8v24.5v0c0,2.1,1.7,3.8,3.8,3.8H83c2.1,0,3.8-1.7,3.8-3.8V86.9
		C86.8,84.8,85.1,83.1,83,83.1z"/>
	<path class="st0" d="M100.3,57h-1.4c-2.1,0-3.8,1.7-3.8,3.8v79.3c0,2.1,1.7,3.8,3.8,3.8h1.4c2.1,0,3.8-1.7,3.8-3.8V60.8
		C104.1,58.7,102.4,57,100.3,57z"/>
	<path class="st0" d="M65.7,73.5h-1.4c-2.1,0-3.8,1.7-3.8,3.8v44.5v0c0,2.1,1.7,3.8,3.8,3.8h1.4c0,0,0,0,0,0c2.1,0,3.8-1.7,3.8-3.8
		V77.4v0C69.5,75.2,67.8,73.5,65.7,73.5z"/>
	<path class="st0" d="M50.3,91.8h-1.4c-2.1,0-3.8,1.7-3.8,3.8v9.7c0,2.1,1.7,3.8,3.8,3.8h1.4c2.1,0,3.8-1.7,3.8-3.8v-9.7
		C54.1,93.5,52.4,91.8,50.3,91.8z"/>
	<path class="st0" d="M118.4,84H117h0c-2.1,0-3.8,1.7-3.8,3.8v24.5v0c0,2.1,1.7,3.8,3.8,3.8h1.4c0,0,0,0,0,0c2.1,0,3.8-1.7,3.8-3.8
		V87.8c0,0,0,0,0,0C122.3,85.7,120.6,84,118.4,84z"/>
	<path class="st0" d="M100,22c-43.1,0-78,34.9-78,78s34.9,78,78,78s78-34.9,78-78S143.1,22,100,22z M100,168c-37.6,0-68-30.4-68-68
		s30.4-68,68-68s68,30.4,68,68S137.6,168,100,168z"/>
	<path class="st0" d="M135.7,74.4h-1.4v0c-2.1,0-3.8,1.7-3.8,3.8v44.5v0c0,2.1,1.7,3.8,3.8,3.8h1.4c2.1,0,3.8-1.7,3.8-3.8V78.2
		C139.6,76.1,137.8,74.4,135.7,74.4z"/>
	<path class="st0" d="M151.2,90.1h-1.4h0c-2.1,0-3.8,1.7-3.8,3.8v9.7c0,2.1,1.7,3.8,3.8,3.8h1.4c2.1,0,3.8-1.7,3.8-3.8v-9.7
		C155,91.8,153.3,90.1,151.2,90.1z"/>
</g>
</svg>
