<?xml version="1.0" encoding="utf-8"?>
<!-- Generator: Adobe Illustrator 21.0.0, SVG Export Plug-In . SVG Version: 6.00 Build 0)  -->
<svg version="1.1" id="图层_1" xmlns="http://www.w3.org/2000/svg" xmlns:xlink="http://www.w3.org/1999/xlink" x="0px" y="0px"
	 viewBox="0 0 200 200" style="enable-background:new 0 0 200 200;" xml:space="preserve">
<style type="text/css">
	.st0{fill:#CCCCCC;}
</style>
<g>
	<path class="st0" d="M100,22c-43.1,0-78,34.9-78,78s34.9,78,78,78c43.1,0,78-34.9,78-78S143.1,22,100,22z M100,168
		c-37.6,0-68-30.4-68-68s30.4-68,68-68s68,30.4,68,68S137.6,168,100,168z"/>
	<path class="st0" d="M134.1,97L85.2,68.8c-0.4-0.2-0.8-0.3-1.2-0.4c-0.2-0.1-0.4-0.2-0.6-0.2l0.3,0.2c-1.9-0.2-3.7,1.3-3.7,3.4
		v56.5c0,2.6,2.9,4.3,5.1,3l48.9-28.3C136.4,101.6,136.4,98.4,134.1,97z"/>
</g>
</svg>
