<?xml version="1.0" encoding="utf-8"?>
<!-- Generator: Adobe Illustrator 21.0.0, SVG Export Plug-In . SVG Version: 6.00 Build 0)  -->
<svg version="1.1" id="图层_1" xmlns="http://www.w3.org/2000/svg" xmlns:xlink="http://www.w3.org/1999/xlink" x="0px" y="0px"
	 viewBox="0 0 200 200" style="enable-background:new 0 0 200 200;" xml:space="preserve">
<style type="text/css">
	.st0{fill:#CCCCCC;}
</style>
<g>
	<path class="st0" d="M145.5,96c0,0-32.2,0-40.5,0V55.5c0-2.5-2-4.5-4.5-4.5h-1C97,51,95,53,95,55.5c0,0,0,45.6,0,46
		c0,1.6,0.9,3.9,4.2,4.5h46.3c2.5,0,4.5-2,4.5-4.5v-1C150,98,148,96,145.5,96z"/>
	<path class="st0" d="M100,22c-43.1,0-78,34.9-78,78c0,43.7,35.9,79,79.9,78c41.4-1,76.1-34.7,76.1-76.1C178,57.3,143.7,22,100,22z
		 M103.2,167.9C64.2,167.9,32,138.5,32,100c0-37.6,30.4-68,68-68c38.6,0,67.9,29.9,67.9,68.2C167.9,135,139,167.9,103.2,167.9z"/>
</g>
</svg>
