<?xml version="1.0" encoding="utf-8"?>
<!-- Generator: Adobe Illustrator 21.0.0, SVG Export Plug-In . SVG Version: 6.00 Build 0)  -->
<svg version="1.1" id="图层_1" xmlns="http://www.w3.org/2000/svg" xmlns:xlink="http://www.w3.org/1999/xlink" x="0px" y="0px"
	 viewBox="0 0 200 200" style="enable-background:new 0 0 200 200;" xml:space="preserve">
<style type="text/css">
	.st0{fill:#CCCCCC;}
</style>
<g>
	<path class="st0" d="M100.2,71.5c-15.9-0.1-28.9,12.8-29,28.7c0,0,0,0,0,0c0,16,12.9,28.9,28.8,28.9c15.9,0,28.7-12.8,28.8-28.7
		C129,84.5,116.1,71.6,100.2,71.5z M100.1,118.9c-10.3,0-18.7-8.4-18.7-18.7c0,0,0,0,0,0c0.1-10.3,8.4-18.6,18.7-18.5
		c10.3,0.1,18.6,8.4,18.5,18.7C118.7,110.6,110.3,118.9,100.1,118.9z"/>
	<path class="st0" d="M174.2,122.6l-15.3-13.3c1-6.1,1-12.4,0-18.5l15.3-13.3c1.1-0.8,1.5-2.3,0.9-3.5c-3.2-9.7-8.4-18.6-15.1-26.3
		c-0.8-1.1-2.3-1.5-3.5-0.9l-19.2,6.7c-4.8-3.9-10.1-7-15.8-9.3l-3.9-20c-0.2-1.3-1.3-2.4-2.6-2.6c-5-1-10-1.5-15.1-1.5
		c-5.1,0-10.1,0.5-15.1,1.5c-1.3,0.2-2.4,1.3-2.6,2.6l-3.9,20c-5.7,2.2-11.1,5.3-15.8,9.3l-19.2-6.7c-0.4-0.2-0.8-0.3-1.2-0.3
		c-0.9,0-1.8,0.5-2.3,1.2c-6.7,7.7-11.9,16.6-15.1,26.3c-0.6,1.2-0.2,2.7,0.9,3.5l15.3,13.3c-1,6.1-1,12.4,0,18.5l-15.3,13.3
		c-1.1,0.8-1.5,2.3-0.9,3.5c3.2,9.7,8.4,18.6,15.1,26.3c0.8,1.1,2.3,1.5,3.5,0.9l19.2-6.7c4.7,3.9,10.1,7.1,15.8,9.3l3.9,20
		c0.2,1.3,1.3,2.4,2.6,2.6c10,2,20.2,2,30.2,0c1.3-0.2,2.4-1.3,2.6-2.6l3.9-20c5.7-2.2,11.1-5.4,15.8-9.3l19.2,6.7
		c1.2,0.6,2.7,0.2,3.5-0.9c6.7-7.7,11.9-16.6,15.1-26.3C175.7,124.9,175.3,123.4,174.2,122.6z M155.3,142.1l-14.6-5.1l-5.3-1.9
		l-4.4,3.6c-3.9,3.2-8.4,5.8-13.1,7.7l-5.2,2l-4,20.8c-5.7,0.8-11.5,0.8-17.2,0l-4-20.8l-5.2-2c-4.7-1.8-9.1-4.3-13-7.5l-4.4-3.7
		l-20.1,7c-3.5-4.6-6.4-9.6-8.6-14.9L47.7,117l4.4-3.8l-1.1-5.8c-0.7-4.9-0.7-9.9,0-14.7l1.1-5.8l-16.1-14
		c2.2-5.3,5.1-10.3,8.6-14.9L59.3,63l5.4,1.9l4.4-3.7c3.9-3.2,8.3-5.8,13-7.5l5.2-2l4-20.8c2.9-0.4,5.7-0.6,8.6-0.6
		c2.9,0,5.8,0.2,8.6,0.6l4,20.8l5.2,2c4.7,1.9,9.2,4.4,13.1,7.7l4.4,3.6l19.9-6.9c3.5,4.6,6.4,9.6,8.6,14.9l-16.1,14l1.1,5.8
		c0.7,4.9,0.7,9.8,0,14.7l-1.1,5.8l4.4,3.9l11.7,10.2C161.7,132.5,158.8,137.5,155.3,142.1z"/>
</g>
</svg>
