<?xml version="1.0" encoding="utf-8"?>
<!-- Generator: Adobe Illustrator 21.0.0, SVG Export Plug-In . SVG Version: 6.00 Build 0)  -->
<svg version="1.1" id="图层_1" xmlns="http://www.w3.org/2000/svg" xmlns:xlink="http://www.w3.org/1999/xlink" x="0px" y="0px"
	 viewBox="0 0 200 200" style="enable-background:new 0 0 200 200;" xml:space="preserve">
<style type="text/css">
	.st0{fill:#CCCCCC;}
</style>
<polygon class="st0" points="159.8,24.5 33.9,24.5 30.4,24.5 24.5,24.5 24.5,159.8 33.9,159.8 33.9,33.9 159.8,33.9 "/>
<path class="st0" d="M43.5,43.5v132.1h132.1V43.5H43.5z M166.2,166.2H52.9V52.9h113.2L166.2,166.2L166.2,166.2z"/>
<path class="st0" d="M79.7,139.6c2.2,1.4,4.7,2.1,7.3,2c1.7,0,3.4-0.3,5-0.8c3.9-1,7.1-3.5,9-7c0.9-1.7,1.3-3.6,1.2-5.5l0,0v-26.7
	c1.2-0.7,2.5-1.4,3.7-2c1.4-0.7,3.3-1.4,5.7-2.3c2.7-0.9,5.5-1.5,8.3-1.8c3.2-0.4,6.4-0.4,9.5-0.2v17.4c-1.2-0.3-2.5-0.5-3.8-0.5
	c-1.6,0-3.3,0.2-4.8,0.7c-3.8,1-7.1,3.5-9,6.9c-1.4,2.4-1.7,5.2-0.8,7.9c0.7,2.3,2.2,4.2,4.3,5.5c2.2,1.4,4.7,2.1,7.3,2
	c1.7,0,3.4-0.3,5-0.8c3.9-1,7.1-3.5,9-7c0.7-1.3,1.1-2.7,1.2-4.2c0-0.1,0-0.2,0-0.2c0-0.1,0-0.2,0-0.2V83.4c0-1.1-0.4-2.1-1.1-2.9
	c-0.7-0.8-1.7-1.3-2.7-1.4c-3.1-0.3-6.1-0.5-9.2-0.5c-3.8,0-7.6,0.3-11.4,0.9c-2.9,0.5-5.7,1.2-8.4,2.2c-2,0.8-3.8,1.7-5.6,2.8
	c-1.2,0.7-2.3,1.5-3.4,2.4c-0.5,0.5-0.9,1-1.4,1.5c-0.6,0.8-0.9,1.7-0.9,2.7v27.7c-1.2-0.3-2.5-0.5-3.8-0.5c-1.6,0-3.3,0.2-4.8,0.7
	c-3.8,1-7.1,3.5-9,6.9c-1.4,2.4-1.7,5.2-0.8,7.9C76.1,136.3,77.6,138.3,79.7,139.6z"/>
</svg>
